<?xml version="1.0" standalone="no"?>
<!DOCTYPE svg PUBLIC "-//W3C//DTD SVG 20010904//EN"
 "http://www.w3.org/TR/2001/REC-SVG-20010904/DTD/svg10.dtd">
<svg version="1.0" xmlns="http://www.w3.org/2000/svg"
 width="464.000000pt" height="464.000000pt" viewBox="0 0 464.000000 464.000000"
 preserveAspectRatio="xMidYMid meet">
<metadata>
Created by potrace 1.11, written by Peter Selinger 2001-2013
</metadata>
<g transform="translate(0.000000,464.000000) scale(0.100000,-0.100000)"
fill="#000000" stroke="none">
<path d="M713 4028 c0 -7 -3 -141 -8 -297 l-7 -283 1116 4 1116 4 1 -71 c1
-38 3 -95 4 -125 2 -48 5 -447 20 -2383 1 -235 6 -431 9 -434 12 -12 613 -20
624 -8 8 8 6 1803 -3 2513 l-5 482 82 1 c46 1 144 3 218 5 74 2 196 5 270 7
l135 4 0 281 c0 154 -3 283 -6 286 -8 8 -714 14 -2290 21 -1037 5 -1276 3
-1276 -7z"/>
<path d="M2367 3294 c-1 -1 -375 -4 -830 -7 -456 -3 -831 -8 -834 -10 -7 -8
-12 -191 -17 -677 -23 -1976 -24 -2105 -13 -2116 4 -5 185 -10 402 -12 l395
-4 1 278 c0 272 9 957 12 961 1 0 256 4 567 8 605 7 719 10 729 20 3 4 8 357
10 785 l3 778 -212 -2 c-116 0 -212 -2 -213 -2z m-189 -757 l2 -258 -277 2
c-153 1 -302 4 -330 7 l-53 4 0 238 c0 131 3 245 6 253 4 13 52 15 327 13
l322 -1 3 -258z"/>
</g>
</svg>
